<mxfile host="65bd71144e">
    <diagram id="RM_h9xtkbtcY9bFt_ecI" name="Page-1">
        <mxGraphModel dx="761" dy="542" grid="1" gridSize="10" guides="1" tooltips="1" connect="1" arrows="1" fold="1" page="1" pageScale="1" pageWidth="850" pageHeight="1100" math="1" shadow="0">
            <root>
                <mxCell id="0"/>
                <mxCell id="1" parent="0"/>
                <mxCell id="34" value="" style="edgeStyle=none;html=1;fontFamily=Helvetica;fontSize=11;fontColor=default;labelBorderColor=none;labelBackgroundColor=default;" parent="1" source="3" target="33" edge="1">
                    <mxGeometry relative="1" as="geometry"/>
                </mxCell>
                <mxCell id="3" value="\(x_0\)" style="ellipse;aspect=fixed;labelBackgroundColor=default;fontColor=default;labelBorderColor=none;textShadow=0;html=1;whiteSpace=wrap;fontSize=11;" parent="1" vertex="1">
                    <mxGeometry x="120" y="280" width="40" height="40" as="geometry"/>
                </mxCell>
                <mxCell id="32" value="" style="edgeStyle=none;html=1;fontFamily=Helvetica;fontSize=11;fontColor=default;labelBorderColor=none;labelBackgroundColor=default;" parent="1" source="29" target="3" edge="1">
                    <mxGeometry relative="1" as="geometry"/>
                </mxCell>
                <mxCell id="29" value="\(st_0\)" style="whiteSpace=wrap;html=1;aspect=fixed;strokeColor=default;align=center;verticalAlign=middle;fontFamily=Helvetica;fontSize=11;fontColor=default;labelBorderColor=none;labelBackgroundColor=default;fillColor=default;" parent="1" vertex="1">
                    <mxGeometry x="130" y="230" width="20" height="20" as="geometry"/>
                </mxCell>
                <mxCell id="52" value="" style="edgeStyle=none;html=1;fontFamily=Helvetica;fontSize=11;fontColor=default;labelBorderColor=none;labelBackgroundColor=default;entryX=0;entryY=0.5;entryDx=0;entryDy=0;" parent="1" source="33" target="37" edge="1">
                    <mxGeometry relative="1" as="geometry"/>
                </mxCell>
                <mxCell id="33" value="" style="whiteSpace=wrap;html=1;aspect=fixed;strokeColor=default;align=center;verticalAlign=middle;fontFamily=Helvetica;fontSize=11;fontColor=default;labelBorderColor=none;labelBackgroundColor=default;fillColor=default;" parent="1" vertex="1">
                    <mxGeometry x="190" y="290" width="20" height="20" as="geometry"/>
                </mxCell>
                <mxCell id="36" value="" style="edgeStyle=none;html=1;fontFamily=Helvetica;fontSize=11;fontColor=default;labelBorderColor=none;labelBackgroundColor=default;" parent="1" source="37" target="43" edge="1">
                    <mxGeometry relative="1" as="geometry"/>
                </mxCell>
                <mxCell id="37" value="\(x_1\)" style="ellipse;aspect=fixed;labelBackgroundColor=default;fontColor=default;labelBorderColor=none;textShadow=0;html=1;whiteSpace=wrap;fontSize=11;" parent="1" vertex="1">
                    <mxGeometry x="240" y="280" width="40" height="40" as="geometry"/>
                </mxCell>
                <mxCell id="38" value="" style="edgeStyle=none;html=1;fontFamily=Helvetica;fontSize=11;fontColor=default;labelBorderColor=none;labelBackgroundColor=default;" parent="1" source="39" target="37" edge="1">
                    <mxGeometry relative="1" as="geometry"/>
                </mxCell>
                <mxCell id="39" value="\(st_1\)" style="whiteSpace=wrap;html=1;aspect=fixed;strokeColor=default;align=center;verticalAlign=middle;fontFamily=Helvetica;fontSize=11;fontColor=default;labelBorderColor=none;labelBackgroundColor=default;fillColor=default;" parent="1" vertex="1">
                    <mxGeometry x="250" y="230" width="20" height="20" as="geometry"/>
                </mxCell>
                <mxCell id="53" value="" style="edgeStyle=none;html=1;fontFamily=Helvetica;fontSize=11;fontColor=default;labelBorderColor=none;labelBackgroundColor=default;entryX=0;entryY=0.5;entryDx=0;entryDy=0;" parent="1" source="43" target="45" edge="1">
                    <mxGeometry relative="1" as="geometry"/>
                </mxCell>
                <mxCell id="43" value="" style="whiteSpace=wrap;html=1;aspect=fixed;strokeColor=default;align=center;verticalAlign=middle;fontFamily=Helvetica;fontSize=11;fontColor=default;labelBorderColor=none;labelBackgroundColor=default;fillColor=default;" parent="1" vertex="1">
                    <mxGeometry x="310" y="290" width="20" height="20" as="geometry"/>
                </mxCell>
                <mxCell id="44" value="" style="edgeStyle=none;html=1;fontFamily=Helvetica;fontSize=11;fontColor=default;labelBorderColor=none;labelBackgroundColor=default;" parent="1" source="45" target="51" edge="1">
                    <mxGeometry relative="1" as="geometry"/>
                </mxCell>
                <mxCell id="45" value="\(x_2\)" style="ellipse;aspect=fixed;labelBackgroundColor=default;fontColor=default;labelBorderColor=none;textShadow=0;html=1;whiteSpace=wrap;fontSize=11;" parent="1" vertex="1">
                    <mxGeometry x="360" y="280" width="40" height="40" as="geometry"/>
                </mxCell>
                <mxCell id="46" value="" style="edgeStyle=none;html=1;fontFamily=Helvetica;fontSize=11;fontColor=default;labelBorderColor=none;labelBackgroundColor=default;" parent="1" source="47" target="45" edge="1">
                    <mxGeometry relative="1" as="geometry"/>
                </mxCell>
                <mxCell id="47" value="\(st_2\)" style="whiteSpace=wrap;html=1;aspect=fixed;strokeColor=default;align=center;verticalAlign=middle;fontFamily=Helvetica;fontSize=11;fontColor=default;labelBorderColor=none;labelBackgroundColor=default;fillColor=default;" parent="1" vertex="1">
                    <mxGeometry x="370" y="230" width="20" height="20" as="geometry"/>
                </mxCell>
                <mxCell id="50" value="" style="edgeStyle=none;html=1;fontFamily=Helvetica;fontSize=11;fontColor=default;labelBorderColor=none;labelBackgroundColor=default;" parent="1" source="51" edge="1">
                    <mxGeometry relative="1" as="geometry">
                        <mxPoint x="480" y="300" as="targetPoint"/>
                    </mxGeometry>
                </mxCell>
                <mxCell id="51" value="" style="whiteSpace=wrap;html=1;aspect=fixed;strokeColor=default;align=center;verticalAlign=middle;fontFamily=Helvetica;fontSize=11;fontColor=default;labelBorderColor=none;labelBackgroundColor=default;fillColor=default;" parent="1" vertex="1">
                    <mxGeometry x="430" y="290" width="20" height="20" as="geometry"/>
                </mxCell>
                <mxCell id="55" value="" style="edgeStyle=none;html=1;fontFamily=Helvetica;fontSize=11;fontColor=default;labelBorderColor=none;labelBackgroundColor=default;entryX=0.5;entryY=1;entryDx=0;entryDy=0;" parent="1" source="54" target="33" edge="1">
                    <mxGeometry relative="1" as="geometry"/>
                </mxCell>
                <mxCell id="64" value="" style="edgeStyle=none;html=1;fontFamily=Helvetica;fontSize=11;fontColor=default;labelBorderColor=none;labelBackgroundColor=default;" parent="1" source="54" target="63" edge="1">
                    <mxGeometry relative="1" as="geometry"/>
                </mxCell>
                <mxCell id="54" value="\(\beta_0\)" style="ellipse;aspect=fixed;labelBackgroundColor=default;fontColor=default;labelBorderColor=none;textShadow=0;html=1;whiteSpace=wrap;fontSize=11;" parent="1" vertex="1">
                    <mxGeometry x="180" y="360" width="40" height="40" as="geometry"/>
                </mxCell>
                <mxCell id="98" value="" style="edgeStyle=none;html=1;" edge="1" parent="1" source="57" target="33">
                    <mxGeometry relative="1" as="geometry"/>
                </mxCell>
                <mxCell id="57" value="\(\hat{\omega}_0\)" style="whiteSpace=wrap;html=1;aspect=fixed;strokeColor=default;align=center;verticalAlign=middle;fontFamily=Helvetica;fontSize=11;fontColor=default;labelBorderColor=none;labelBackgroundColor=default;fillColor=default;" parent="1" vertex="1">
                    <mxGeometry x="160" y="180" width="20" height="20" as="geometry"/>
                </mxCell>
                <mxCell id="76" value="" style="edgeStyle=none;html=1;fontFamily=Helvetica;fontSize=11;fontColor=default;labelBorderColor=none;labelBackgroundColor=default;entryX=0;entryY=0.5;entryDx=0;entryDy=0;" parent="1" source="63" target="66" edge="1">
                    <mxGeometry relative="1" as="geometry"/>
                </mxCell>
                <mxCell id="63" value="" style="whiteSpace=wrap;html=1;aspect=fixed;strokeColor=default;align=center;verticalAlign=middle;fontFamily=Helvetica;fontSize=11;fontColor=default;labelBorderColor=none;labelBackgroundColor=default;fillColor=default;" parent="1" vertex="1">
                    <mxGeometry x="250" y="370" width="20" height="20" as="geometry"/>
                </mxCell>
                <mxCell id="65" value="" style="edgeStyle=none;html=1;fontFamily=Helvetica;fontSize=11;fontColor=default;labelBorderColor=none;labelBackgroundColor=default;" parent="1" source="66" target="73" edge="1">
                    <mxGeometry relative="1" as="geometry"/>
                </mxCell>
                <mxCell id="107" value="" style="edgeStyle=none;html=1;entryX=0.5;entryY=1;entryDx=0;entryDy=0;" edge="1" parent="1" source="66" target="43">
                    <mxGeometry relative="1" as="geometry"/>
                </mxCell>
                <mxCell id="66" value="\(\beta_1\)" style="ellipse;aspect=fixed;labelBackgroundColor=default;fontColor=default;labelBorderColor=none;textShadow=0;html=1;whiteSpace=wrap;fontSize=11;" parent="1" vertex="1">
                    <mxGeometry x="300" y="360" width="40" height="40" as="geometry"/>
                </mxCell>
                <mxCell id="70" value="\(\hat{\omega}_3\)" style="whiteSpace=wrap;html=1;aspect=fixed;strokeColor=default;align=center;verticalAlign=middle;fontFamily=Helvetica;fontSize=11;fontColor=default;labelBorderColor=none;labelBackgroundColor=default;fillColor=default;" parent="1" vertex="1">
                    <mxGeometry x="280" y="180" width="20" height="20" as="geometry"/>
                </mxCell>
                <mxCell id="86" style="edgeStyle=none;html=1;exitX=1;exitY=0.5;exitDx=0;exitDy=0;entryX=0;entryY=0.5;entryDx=0;entryDy=0;fontFamily=Helvetica;fontSize=11;fontColor=default;labelBorderColor=none;labelBackgroundColor=default;" parent="1" source="73" target="78" edge="1">
                    <mxGeometry relative="1" as="geometry"/>
                </mxCell>
                <mxCell id="73" value="" style="whiteSpace=wrap;html=1;aspect=fixed;strokeColor=default;align=center;verticalAlign=middle;fontFamily=Helvetica;fontSize=11;fontColor=default;labelBorderColor=none;labelBackgroundColor=default;fillColor=default;" parent="1" vertex="1">
                    <mxGeometry x="370" y="370" width="20" height="20" as="geometry"/>
                </mxCell>
                <mxCell id="87" style="edgeStyle=none;html=1;exitX=0.5;exitY=0;exitDx=0;exitDy=0;entryX=0.5;entryY=1;entryDx=0;entryDy=0;fontFamily=Helvetica;fontSize=11;fontColor=default;labelBorderColor=none;labelBackgroundColor=default;" parent="1" source="78" target="51" edge="1">
                    <mxGeometry relative="1" as="geometry"/>
                </mxCell>
                <mxCell id="78" value="\(\beta_2\)" style="ellipse;aspect=fixed;labelBackgroundColor=default;fontColor=default;labelBorderColor=none;textShadow=0;html=1;whiteSpace=wrap;fontSize=11;" parent="1" vertex="1">
                    <mxGeometry x="420" y="360" width="40" height="40" as="geometry"/>
                </mxCell>
                <mxCell id="82" value="\(\hat{\omega}_6\)" style="whiteSpace=wrap;html=1;aspect=fixed;strokeColor=default;align=center;verticalAlign=middle;fontFamily=Helvetica;fontSize=11;fontColor=default;labelBorderColor=none;labelBackgroundColor=default;fillColor=default;" parent="1" vertex="1">
                    <mxGeometry x="400" y="180" width="20" height="20" as="geometry"/>
                </mxCell>
                <mxCell id="88" value="\(x_3\)" style="ellipse;aspect=fixed;labelBackgroundColor=default;fontColor=default;labelBorderColor=none;textShadow=0;html=1;whiteSpace=wrap;fontSize=11;" parent="1" vertex="1">
                    <mxGeometry x="480" y="280" width="40" height="40" as="geometry"/>
                </mxCell>
                <mxCell id="91" value="\(\hat{\omega}_7\)" style="whiteSpace=wrap;html=1;aspect=fixed;strokeColor=default;align=center;verticalAlign=middle;fontFamily=Helvetica;fontSize=11;fontColor=default;labelBorderColor=none;labelBackgroundColor=default;fillColor=default;" parent="1" vertex="1">
                    <mxGeometry x="430" y="180" width="20" height="20" as="geometry"/>
                </mxCell>
                <mxCell id="92" value="\(\hat{\omega}_8\)" style="whiteSpace=wrap;html=1;aspect=fixed;strokeColor=default;align=center;verticalAlign=middle;fontFamily=Helvetica;fontSize=11;fontColor=default;labelBorderColor=none;labelBackgroundColor=default;fillColor=default;" parent="1" vertex="1">
                    <mxGeometry x="460" y="180" width="20" height="20" as="geometry"/>
                </mxCell>
                <mxCell id="93" value="" style="endArrow=none;dashed=1;html=1;dashPattern=1 3;strokeWidth=2;fontFamily=Helvetica;fontSize=11;fontColor=default;labelBorderColor=none;labelBackgroundColor=default;" parent="1" edge="1">
                    <mxGeometry width="50" height="50" relative="1" as="geometry">
                        <mxPoint x="490" y="360" as="sourcePoint"/>
                        <mxPoint x="510" y="360" as="targetPoint"/>
                        <Array as="points">
                            <mxPoint x="510" y="360"/>
                        </Array>
                    </mxGeometry>
                </mxCell>
                <mxCell id="94" value="\(\hat{\omega}_4\)" style="whiteSpace=wrap;html=1;aspect=fixed;strokeColor=default;align=center;verticalAlign=middle;fontFamily=Helvetica;fontSize=11;fontColor=default;labelBorderColor=none;labelBackgroundColor=default;fillColor=default;" parent="1" vertex="1">
                    <mxGeometry x="310" y="180" width="20" height="20" as="geometry"/>
                </mxCell>
                <mxCell id="95" value="\(\hat{\omega}_5\)" style="whiteSpace=wrap;html=1;aspect=fixed;strokeColor=default;align=center;verticalAlign=middle;fontFamily=Helvetica;fontSize=11;fontColor=default;labelBorderColor=none;labelBackgroundColor=default;fillColor=default;" parent="1" vertex="1">
                    <mxGeometry x="340" y="180" width="20" height="20" as="geometry"/>
                </mxCell>
                <mxCell id="99" value="" style="edgeStyle=none;html=1;entryX=0.5;entryY=0;entryDx=0;entryDy=0;" edge="1" parent="1" source="96" target="33">
                    <mxGeometry relative="1" as="geometry"/>
                </mxCell>
                <mxCell id="96" value="\(\hat{\omega}_1\)" style="whiteSpace=wrap;html=1;aspect=fixed;strokeColor=default;align=center;verticalAlign=middle;fontFamily=Helvetica;fontSize=11;fontColor=default;labelBorderColor=none;labelBackgroundColor=default;fillColor=default;" parent="1" vertex="1">
                    <mxGeometry x="190" y="180" width="20" height="20" as="geometry"/>
                </mxCell>
                <mxCell id="100" value="" style="edgeStyle=none;html=1;" edge="1" parent="1" source="97">
                    <mxGeometry relative="1" as="geometry">
                        <mxPoint x="200" y="290" as="targetPoint"/>
                    </mxGeometry>
                </mxCell>
                <mxCell id="97" value="\(\hat{\omega}_2\)" style="whiteSpace=wrap;html=1;aspect=fixed;strokeColor=default;align=center;verticalAlign=middle;fontFamily=Helvetica;fontSize=11;fontColor=default;labelBorderColor=none;labelBackgroundColor=default;fillColor=default;" parent="1" vertex="1">
                    <mxGeometry x="220" y="180" width="20" height="20" as="geometry"/>
                </mxCell>
                <mxCell id="101" value="" style="edgeStyle=none;html=1;" edge="1" parent="1">
                    <mxGeometry relative="1" as="geometry">
                        <mxPoint x="293" y="200" as="sourcePoint"/>
                        <mxPoint x="317" y="290" as="targetPoint"/>
                    </mxGeometry>
                </mxCell>
                <mxCell id="102" value="" style="edgeStyle=none;html=1;entryX=0.5;entryY=0;entryDx=0;entryDy=0;" edge="1" parent="1">
                    <mxGeometry relative="1" as="geometry">
                        <mxPoint x="320" y="200" as="sourcePoint"/>
                        <mxPoint x="320" y="290" as="targetPoint"/>
                    </mxGeometry>
                </mxCell>
                <mxCell id="103" value="" style="edgeStyle=none;html=1;" edge="1" parent="1">
                    <mxGeometry relative="1" as="geometry">
                        <mxPoint x="347" y="200" as="sourcePoint"/>
                        <mxPoint x="320" y="290" as="targetPoint"/>
                    </mxGeometry>
                </mxCell>
                <mxCell id="104" value="" style="edgeStyle=none;html=1;" edge="1" parent="1">
                    <mxGeometry relative="1" as="geometry">
                        <mxPoint x="413" y="200" as="sourcePoint"/>
                        <mxPoint x="437" y="290" as="targetPoint"/>
                    </mxGeometry>
                </mxCell>
                <mxCell id="105" value="" style="edgeStyle=none;html=1;entryX=0.5;entryY=0;entryDx=0;entryDy=0;" edge="1" parent="1">
                    <mxGeometry relative="1" as="geometry">
                        <mxPoint x="440" y="200" as="sourcePoint"/>
                        <mxPoint x="440" y="290" as="targetPoint"/>
                    </mxGeometry>
                </mxCell>
                <mxCell id="106" value="" style="edgeStyle=none;html=1;" edge="1" parent="1">
                    <mxGeometry relative="1" as="geometry">
                        <mxPoint x="467" y="200" as="sourcePoint"/>
                        <mxPoint x="440" y="290" as="targetPoint"/>
                    </mxGeometry>
                </mxCell>
            </root>
        </mxGraphModel>
    </diagram>
</mxfile>